<svg width="161" height="21" viewBox="0 0 161 21" fill="none" xmlns="http://www.w3.org/2000/svg">
<path d="M0.551758 19.9999V0.150146H7.86627L15.3439 16.3835H16.2684L15.7246 16.8729V0.150146H19.9121V19.9999H12.5432L5.06555 3.76661H4.14103L4.68486 3.27717V19.9999H0.551758Z" fill="white"/>
<path d="M24.5975 19.9999V0.150146H29.0569V19.9999H24.5975ZM28.513 12.0056V8.30759H36.181V12.0056H28.513ZM28.513 3.84819V0.150146H36.5073V3.84819H28.513Z" fill="white"/>
<path d="M44.2214 19.9999V3.4947H48.6808V19.9999H44.2214ZM38.6471 4.03853V0.150146H54.2822V4.03853H38.6471Z" fill="white"/>
<path d="M63.2497 19.9999V0.150146H69.395L73.936 11.2987H74.4526L78.9392 0.150146H85.1933V19.9999H80.7883V3.05964L81.4137 3.11402L76.1657 15.9756H71.9238L66.6487 3.11402L67.3285 3.05964V19.9999H63.2497Z" fill="white"/>
<path d="M98.6268 19.9999V15.5949H97.8927V10.8092C97.8927 10.0478 97.7114 9.47683 97.3488 9.09615C96.9863 8.71546 96.4062 8.52512 95.6086 8.52512C95.2098 8.52512 94.6841 8.53419 94.0315 8.55232C93.3789 8.57044 92.7082 8.59764 92.0193 8.63389C91.3305 8.67015 90.7051 8.7064 90.1431 8.74266V5.07181C90.5601 5.03555 91.0495 4.9993 91.6115 4.96304C92.1734 4.92678 92.7535 4.89959 93.3517 4.88146C93.9499 4.86334 94.5119 4.85427 95.0376 4.85427C96.5603 4.85427 97.8383 5.07181 98.8716 5.50687C99.923 5.94193 100.721 6.60359 101.264 7.49185C101.808 8.36197 102.08 9.48589 102.08 10.8636V19.9999H98.6268ZM93.8683 20.3806C92.7988 20.3806 91.8562 20.1903 91.0404 19.8096C90.2428 19.4289 89.6174 18.8851 89.1642 18.1781C88.711 17.453 88.4844 16.5919 88.4844 15.5949C88.4844 14.5073 88.7654 13.619 89.3274 12.9301C89.8893 12.2232 90.6779 11.7065 91.693 11.3802C92.7082 11.0358 93.8774 10.8636 95.2007 10.8636H98.3821V13.2836H95.1735C94.4122 13.2836 93.823 13.474 93.4061 13.8547C93.0073 14.2172 92.8079 14.7157 92.8079 15.3502C92.8079 15.9484 93.0073 16.4378 93.4061 16.8185C93.823 17.1811 94.4122 17.3624 95.1735 17.3624C95.663 17.3624 96.098 17.2808 96.4787 17.1176C96.8775 16.9364 97.2038 16.6373 97.4576 16.2203C97.7114 15.8034 97.8564 15.2233 97.8927 14.4801L98.926 15.5677C98.8353 16.601 98.5815 17.4711 98.1646 18.1781C97.7658 18.8851 97.2038 19.4289 96.4787 19.8096C95.7718 20.1903 94.9016 20.3806 93.8683 20.3806Z" fill="white"/>
<path d="M105.998 19.9999V5.099H109.451V11.489H109.37C109.37 9.38619 109.814 7.76376 110.702 6.62172C111.609 5.47968 112.914 4.90866 114.618 4.90866H115.189V8.66108H114.101C112.905 8.66108 111.98 8.98738 111.328 9.63998C110.675 10.2744 110.349 11.199 110.349 12.4135V19.9999H105.998Z" fill="white"/>
<path d="M128.165 19.9999L123.461 13.0389H121.368L127.431 5.099H131.999L126.289 12.4951L126.344 10.3741L133.06 19.9999H128.165ZM117.669 19.9999V0.150146H122.02V19.9999H117.669Z" fill="white"/>
<path d="M141.503 20.5166C140.234 20.5166 139.111 20.299 138.132 19.864C137.171 19.4289 136.364 18.8488 135.712 18.1237C135.077 17.3805 134.588 16.5557 134.243 15.6493C133.917 14.7248 133.754 13.7821 133.754 12.8214V12.2775C133.754 11.2805 133.917 10.3288 134.243 9.42244C134.588 8.49793 135.077 7.67312 135.712 6.94802C136.346 6.22291 137.135 5.65189 138.077 5.23495C139.038 4.79989 140.126 4.58236 141.34 4.58236C142.935 4.58236 144.277 4.94491 145.365 5.67002C146.47 6.377 147.313 7.31057 147.893 8.47074C148.473 9.61278 148.764 10.8636 148.764 12.2232V13.6915H135.576V11.2171H146.126L144.712 12.3591C144.712 11.4709 144.585 10.7095 144.331 10.075C144.077 9.44057 143.697 8.96019 143.189 8.63389C142.7 8.28947 142.083 8.11725 141.34 8.11725C140.579 8.11725 139.935 8.28947 139.41 8.63389C138.884 8.97832 138.485 9.48589 138.213 10.1566C137.941 10.8092 137.805 11.6159 137.805 12.5767C137.805 13.4649 137.932 14.2444 138.186 14.9151C138.44 15.5677 138.839 16.0753 139.382 16.4378C139.926 16.8004 140.633 16.9817 141.503 16.9817C142.301 16.9817 142.954 16.8276 143.461 16.5194C143.969 16.2113 144.313 15.8306 144.494 15.3774H148.492C148.274 16.3744 147.848 17.2627 147.214 18.0421C146.579 18.8216 145.782 19.4289 144.821 19.864C143.86 20.299 142.754 20.5166 141.503 20.5166Z" fill="white"/>
<path d="M158.644 20.1903C157.139 20.1903 155.925 20.009 155 19.6464C154.076 19.2658 153.396 18.6404 152.961 17.7702C152.544 16.882 152.335 15.6855 152.335 14.181V1.07466H156.387V14.3441C156.387 15.0511 156.568 15.5949 156.931 15.9756C157.311 16.3381 157.846 16.5194 158.535 16.5194H160.737V20.1903H158.644ZM150.078 8.2804V5.099H160.737V8.2804H150.078Z" fill="white"/>
</svg>
